# xmcd CD database file generated by Grip 2.95
# 
# Track frame offsets:
#       225
#       19641
#       38317
#       53398
#       71495
#       90153
#       107587
#       137339
#       152241
#       165893
#       183467
#       211169
#       236602
#       252572
#       272909
#       293977
#       309730
# 
# Disc length: 4409 seconds
# 
# Revision: 3
# Processed by: cddbd v1.4b41PL1 Copyright (c) Steve Scherf et al.
# Submitted via: Grip 2.95
# 
DISCID=d7113611
DTITLE=J-Tull - Greatest Hits
DYEAR=1900
DGENRE=
TTITLE0=Beggar's Farm
TTITLE1=A New Day Yesterday
TTITLE2=Living In The Past
TTITLE3=Sweet Dreams
TTITLE4=Cross-Eyed Marry
TTITLE5=Mother Goose
TTITLE6=Aqualung
TTITLE7=Life Is A Long Song
TTITLE8=Thick As A Brick
TTITLE9=Minstrel In A Gallery
TTITLE10=Too Old To Rock And Roll
TTITLE11=The Whistler
TTITLE12=Flyingdale Flyer
TTITLE13=Jack-A-Lynn
TTITLE14=This Is Not Love
TTITLE15=Jump Start
TTITLE16=Serenade For A Cuckoo
EXTD=
EXTT0=
EXTT1=
EXTT2=
EXTT3=
EXTT4=
EXTT5=
EXTT6=
EXTT7=
EXTT8=
EXTT9=
EXTT10=
EXTT11=
EXTT12=
EXTT13=
EXTT14=
EXTT15=
EXTT16=
PLAYORDER=
